<svg id="visual" viewBox="0 0 1980 1080" width="1980" height="1080" xmlns="http://www.w3.org/2000/svg" xmlns:xlink="http://www.w3.org/1999/xlink" version="1.1"><path d="M0 930L47.2 883.8C94.3 837.7 188.7 745.3 283 738.8C377.3 732.3 471.7 811.7 566 825.3C660.3 839 754.7 787 848.8 776.8C943 766.7 1037 798.3 1131.2 782C1225.3 765.7 1319.7 701.3 1414 678.8C1508.3 656.3 1602.7 675.7 1697 666.7C1791.3 657.7 1885.7 620.3 1932.8 601.7L1980 583L1980 1081L1932.8 1081C1885.7 1081 1791.3 1081 1697 1081C1602.7 1081 1508.3 1081 1414 1081C1319.7 1081 1225.3 1081 1131.2 1081C1037 1081 943 1081 848.8 1081C754.7 1081 660.3 1081 566 1081C471.7 1081 377.3 1081 283 1081C188.7 1081 94.3 1081 47.2 1081L0 1081Z" fill="#c02427"></path><path d="M0 849L47.2 851.2C94.3 853.3 188.7 857.7 283 860.3C377.3 863 471.7 864 566 848C660.3 832 754.7 799 848.8 791.8C943 784.7 1037 803.3 1131.2 827.3C1225.3 851.3 1319.7 880.7 1414 884.8C1508.3 889 1602.7 868 1697 872.8C1791.3 877.7 1885.7 908.3 1932.8 923.7L1980 939L1980 1081L1932.8 1081C1885.7 1081 1791.3 1081 1697 1081C1602.7 1081 1508.3 1081 1414 1081C1319.7 1081 1225.3 1081 1131.2 1081C1037 1081 943 1081 848.8 1081C754.7 1081 660.3 1081 566 1081C471.7 1081 377.3 1081 283 1081C188.7 1081 94.3 1081 47.2 1081L0 1081Z" fill="#af2328"></path><path d="M0 751L47.2 770.8C94.3 790.7 188.7 830.3 283 852.8C377.3 875.3 471.7 880.7 566 867C660.3 853.3 754.7 820.7 848.8 816.2C943 811.7 1037 835.3 1131.2 839.7C1225.3 844 1319.7 829 1414 804.3C1508.3 779.7 1602.7 745.3 1697 718.3C1791.3 691.3 1885.7 671.7 1932.8 661.8L1980 652L1980 1081L1932.8 1081C1885.7 1081 1791.3 1081 1697 1081C1602.7 1081 1508.3 1081 1414 1081C1319.7 1081 1225.3 1081 1131.2 1081C1037 1081 943 1081 848.8 1081C754.7 1081 660.3 1081 566 1081C471.7 1081 377.3 1081 283 1081C188.7 1081 94.3 1081 47.2 1081L0 1081Z" fill="#9e2128"></path><path d="M0 801L47.2 800.5C94.3 800 188.7 799 283 801.8C377.3 804.7 471.7 811.3 566 813.2C660.3 815 754.7 812 848.8 796.7C943 781.3 1037 753.7 1131.2 757.2C1225.3 760.7 1319.7 795.3 1414 812.7C1508.3 830 1602.7 830 1697 821.7C1791.3 813.3 1885.7 796.7 1932.8 788.3L1980 780L1980 1081L1932.8 1081C1885.7 1081 1791.3 1081 1697 1081C1602.7 1081 1508.3 1081 1414 1081C1319.7 1081 1225.3 1081 1131.2 1081C1037 1081 943 1081 848.8 1081C754.7 1081 660.3 1081 566 1081C471.7 1081 377.3 1081 283 1081C188.7 1081 94.3 1081 47.2 1081L0 1081Z" fill="#8d2028"></path><path d="M0 979L47.2 966.7C94.3 954.3 188.7 929.7 283 898.3C377.3 867 471.7 829 566 837.3C660.3 845.7 754.7 900.3 848.8 932.8C943 965.3 1037 975.7 1131.2 969.8C1225.3 964 1319.7 942 1414 932.7C1508.3 923.3 1602.7 926.7 1697 905.2C1791.3 883.7 1885.7 837.3 1932.8 814.2L1980 791L1980 1081L1932.8 1081C1885.7 1081 1791.3 1081 1697 1081C1602.7 1081 1508.3 1081 1414 1081C1319.7 1081 1225.3 1081 1131.2 1081C1037 1081 943 1081 848.8 1081C754.7 1081 660.3 1081 566 1081C471.7 1081 377.3 1081 283 1081C188.7 1081 94.3 1081 47.2 1081L0 1081Z" fill="#7b1f26"></path><path d="M0 936L47.2 934.7C94.3 933.3 188.7 930.7 283 928C377.3 925.3 471.7 922.7 566 914.5C660.3 906.3 754.7 892.7 848.8 896.7C943 900.7 1037 922.3 1131.2 920.2C1225.3 918 1319.7 892 1414 896C1508.3 900 1602.7 934 1697 929.3C1791.3 924.7 1885.7 881.3 1932.8 859.7L1980 838L1980 1081L1932.8 1081C1885.7 1081 1791.3 1081 1697 1081C1602.7 1081 1508.3 1081 1414 1081C1319.7 1081 1225.3 1081 1131.2 1081C1037 1081 943 1081 848.8 1081C754.7 1081 660.3 1081 566 1081C471.7 1081 377.3 1081 283 1081C188.7 1081 94.3 1081 47.2 1081L0 1081Z" fill="#6a1e24"></path><path d="M0 940L47.2 937.3C94.3 934.7 188.7 929.3 283 940.2C377.3 951 471.7 978 566 980.8C660.3 983.7 754.7 962.3 848.8 946.2C943 930 1037 919 1131.2 931.3C1225.3 943.7 1319.7 979.3 1414 987.8C1508.3 996.3 1602.7 977.7 1697 959C1791.3 940.3 1885.7 921.7 1932.8 912.3L1980 903L1980 1081L1932.8 1081C1885.7 1081 1791.3 1081 1697 1081C1602.7 1081 1508.3 1081 1414 1081C1319.7 1081 1225.3 1081 1131.2 1081C1037 1081 943 1081 848.8 1081C754.7 1081 660.3 1081 566 1081C471.7 1081 377.3 1081 283 1081C188.7 1081 94.3 1081 47.2 1081L0 1081Z" fill="#5a1d22"></path><path d="M0 1028L47.2 1017.5C94.3 1007 188.7 986 283 982.7C377.3 979.3 471.7 993.7 566 1008C660.3 1022.3 754.7 1036.7 848.8 1028.2C943 1019.7 1037 988.3 1131.2 985.8C1225.3 983.3 1319.7 1009.7 1414 1024.5C1508.3 1039.3 1602.7 1042.7 1697 1039.8C1791.3 1037 1885.7 1028 1932.8 1023.5L1980 1019L1980 1081L1932.8 1081C1885.7 1081 1791.3 1081 1697 1081C1602.7 1081 1508.3 1081 1414 1081C1319.7 1081 1225.3 1081 1131.2 1081C1037 1081 943 1081 848.8 1081C754.7 1081 660.3 1081 566 1081C471.7 1081 377.3 1081 283 1081C188.7 1081 94.3 1081 47.2 1081L0 1081Z" fill="#491b1f"></path></svg>